<?xml version="1.0" encoding="UTF-8"?>
<svg xmlns="http://www.w3.org/2000/svg" viewBox="0 215 595 440">
  <defs>
    <style>
      .cls-1, .cls-2 { fill: #2eab5c; }
      .cls-3, .cls-4 { fill: #005ca9; }
      .cls-3, .cls-2 { fill-rule: evenodd; }
    </style>
  </defs>
  <path class="cls-3" d="M431.06,275.71c-82.77-38.11-183.73-49.22-263.75-35.39-255.76,44.2-122.73,168.68-52.26,105.93,70.06-62.4,212.28-84.32,316.01-43.1,18.81,7.48,21.61-17.48,0-27.43"/>
  <path class="cls-2" d="M164.21,566.18c82.77,38.11,183.73,49.22,263.75,35.39,255.76-44.2,122.73-168.69,52.26-105.92-70.06,62.4-212.28,84.32-316.01,43.1-18.81-7.48-21.61,17.48,0,27.43"/>
  <path class="cls-4" d="M512.28,358.51l6.3-25.27h7.83l-6.3,25.27h-7.83Zm-29.42,13.44h53.85c2.41,0,4.12-.36,5.14-1.08,1.03-.71,1.79-2.05,2.3-3.99l8.76-35.18c.31-1.18,.46-2.31,.46-3.38,0-2.3-.82-4.15-2.46-5.53-1.64-1.39-3.81-2.08-6.53-2.08h-48.78l-12.75,51.24Zm-.94-51.24h-39.79c-2,0-3.67,.43-5.03,1.27-1.36,.84-2.21,1.98-2.57,3.42l-9.75,38.95c-.21,.82-.31,1.66-.31,2.53,0,3.38,2.18,5.07,6.53,5.07h38.18l3.3-13.37h-20.13l1.46-5.99h20.2l3.38-13.44h-20.21l1.46-5.91h20.2l3.07-12.53Zm-96.8,51.24h26.04l12.83-51.24h-26.12l-12.75,51.24Zm-39.88-51.24l-10.83,43.56c-.25,1.13-.38,2.05-.38,2.77,0,1.74,.56,2.99,1.69,3.76,1.13,.77,2.95,1.15,5.45,1.15h30.19l3.23-13.13h-12.68l9.45-38.11h-26.12Zm-51.02,0l-10.83,43.56c-.26,1.13-.38,2.05-.38,2.77,0,1.74,.56,2.99,1.69,3.76,1.13,.77,2.94,1.15,5.45,1.15h30.19l3.23-13.13h-12.68l9.45-38.11h-26.12Zm-90.42,51.24h25.89l3.15-12.6h10.53v12.6h25.96v-51.24h-25.96v27.89h-7.83l6.83-27.89h-16.59c-6.2,0-9.71,1.74-10.52,5.22l-11.44,46.01Z"/>
  <path class="cls-1" d="M317.91,436.3h13.6l7.14-28.73,10.75,28.73h28.73l12.75-51.23h-13.36l-7.3,29.5-10.83-29.5h-28.73l-12.75,51.23Zm-.93-51.23h-39.79c-2,0-3.67,.42-5.03,1.27-1.36,.84-2.21,1.98-2.57,3.41l-9.76,38.95c-.2,.82-.3,1.66-.3,2.53,0,3.38,2.17,5.07,6.53,5.07h38.18l3.3-13.37h-20.13l1.46-5.99h20.2l3.38-13.44h-20.2l1.46-5.92h20.21l3.07-12.52Zm-57.93,0h-39.79c-2,0-3.67,.42-5.03,1.27-1.36,.84-2.22,1.98-2.57,3.41l-9.75,38.95c-.2,.82-.31,1.66-.31,2.53,0,3.38,2.18,5.07,6.53,5.07h38.18l3.3-13.37h-20.13l1.46-5.99h20.2l3.38-13.44h-20.2l1.46-5.92h20.2l3.07-12.52Zm-95.57,18.59l1.46-6.37h7.45l-1.46,6.37h-7.45Zm-21.43-18.59l-12.67,51.23h25.96l4.61-18.67,8.29,18.67h26.27l-8.76-19.36c2.92,0,5.13-.47,6.64-1.42,1.51-.95,2.52-2.55,3.03-4.8l4.46-18.2c.2-.77,.31-1.62,.31-2.54,0-3.28-1.94-4.92-5.84-4.92h-52.31Zm-9,0h-53c-2.61,0-4.52,.38-5.73,1.15-1.2,.77-2.06,2.15-2.57,4.14l-9.52,38.25c-.15,.67-.23,1.38-.23,2.15,0,2.05,.56,3.49,1.69,4.3,1.13,.82,3.07,1.23,5.84,1.23h44.86c2.05,0,3.66-.47,4.84-1.42,1.18-.95,2.02-2.5,2.54-4.65l6.68-26.66h-31.19l-3.3,13.44h4.84l-1.46,5.92h-7.6l6.37-25.35h33.8l3.15-12.52Z"/>
  <path class="cls-4" d="M421.04,449.41l11.75,26.81-6.1,24.43h26.35l5.79-23.12,20.24-28.12h-13.99l-11.28,15.21-6.72-15.21h-26.04Zm-2.53,0h-53.32c-2.63,0-4.55,.39-5.76,1.15-1.21,.77-2.07,2.15-2.59,4.15l-9.58,38.25c-.16,.67-.23,1.39-.23,2.15,0,2.05,.56,3.48,1.7,4.3,1.13,.82,3.09,1.23,5.87,1.23h45.13c2.06,0,3.68-.48,4.87-1.42,1.18-.95,2.03-2.5,2.55-4.65l6.72-26.66h-31.37l-3.32,13.44h4.87l-1.47,5.91h-7.65l6.41-25.34h34l3.17-12.52Zm-108.78,18.59l1.47-6.37h7.49l-1.47,6.37h-7.49Zm-21.56-18.59l-12.75,51.23h26.12l4.64-18.66,8.34,18.66h26.43l-8.81-19.35c2.94,0,5.16-.47,6.68-1.42,1.52-.95,2.54-2.55,3.05-4.8l4.48-18.2c.21-.77,.31-1.62,.31-2.54,0-3.28-1.96-4.92-5.87-4.92h-52.62Zm-12.19,0h-40.02c-2.01,0-3.7,.42-5.06,1.27-1.36,.85-2.23,1.99-2.59,3.42l-9.82,38.94c-.21,.82-.31,1.67-.31,2.54,0,3.38,2.19,5.07,6.57,5.07h38.4l3.32-13.37h-20.24l1.47-5.99h20.32l3.4-13.44h-20.32l1.47-5.92h20.32l3.09-12.52Zm-131.72,51.23h13.68l7.18-28.73,10.82,28.73h28.9l12.83-51.23h-13.44l-7.34,29.5-10.89-29.5h-28.9l-12.83,51.23Zm.56-51.23h-40.03c-2.01,0-3.7,.42-5.06,1.27-1.37,.85-2.23,1.99-2.59,3.42l-9.81,38.94c-.21,.82-.31,1.67-.31,2.54,0,3.38,2.19,5.07,6.57,5.07h38.4l3.32-13.37h-20.25l1.47-5.99h20.32l3.4-13.44h-20.32l1.47-5.92h20.32l3.09-12.52Z"/>
</svg>
